<svg xmlns="http://www.w3.org/2000/svg" viewBox="0 0 980 320" font-family="'Segoe UI',Calibri,system-ui,sans-serif" width="100%">
<rect width="980" height="320" fill="#0B1524" rx="14"/>
<text x="154.0" y="77" fill="#A78BFA" font-size="17" font-weight="bold" text-anchor="middle" font-family="'Segoe UI',Calibri,system-ui,sans-serif">weights</text>
<rect x="58" y="85" width="192" height="174" rx="9" fill="#13233B" stroke="#A78BFA" stroke-width="1.4"/>
<rect x="70" y="97" width="52" height="46" rx="5" fill="#0B1524" stroke="#A78BFA" stroke-width="1.2"/>
<rect x="128" y="97" width="52" height="46" rx="5" fill="#0B1524" stroke="#A78BFA" stroke-width="1.2"/>
<rect x="186" y="97" width="52" height="46" rx="5" fill="#0B1524" stroke="#A78BFA" stroke-width="1.2"/>
<rect x="70" y="149" width="52" height="46" rx="5" fill="#0B1524" stroke="#A78BFA" stroke-width="1.2"/>
<rect x="128" y="149" width="52" height="46" rx="5" fill="#0B1524" stroke="#A78BFA" stroke-width="1.2"/>
<rect x="186" y="149" width="52" height="46" rx="5" fill="#0B1524" stroke="#A78BFA" stroke-width="1.2"/>
<rect x="70" y="201" width="52" height="46" rx="5" fill="#0B1524" stroke="#A78BFA" stroke-width="1.2"/>
<rect x="128" y="201" width="52" height="46" rx="5" fill="#0B1524" stroke="#A78BFA" stroke-width="1.2"/>
<rect x="186" y="201" width="52" height="46" rx="5" fill="#0B1524" stroke="#A78BFA" stroke-width="1.2"/>
<text x="154.0" y="281" fill="#8FA6C4" font-size="15" font-weight="bold" text-anchor="middle" font-family="ui-monospace,'Courier New',monospace">(3, 3)</text>
<text x="268" y="178.0" fill="#EAF2FB" font-size="30" font-weight="bold" text-anchor="middle">×</text>
<text x="378.0" y="77" fill="#F97066" font-size="17" font-weight="bold" text-anchor="middle" font-family="'Segoe UI',Calibri,system-ui,sans-serif">V</text>
<rect x="303" y="95" width="150" height="150" rx="9" fill="#13233B" stroke="#F97066" stroke-width="1.6"/>
<text x="378.0" y="175.0" fill="#8FA6C4" font-size="15" text-anchor="middle" font-family="ui-monospace,'Courier New',monospace">n×64</text>
<text x="378.0" y="275" fill="#8FA6C4" font-size="15" font-weight="bold" text-anchor="middle" font-family="ui-monospace,'Courier New',monospace">(3, 64)</text>
<text x="483" y="178.0" fill="#EAF2FB" font-size="30" font-weight="bold" text-anchor="middle">=</text>
<text x="593.0" y="77" fill="#22D3C5" font-size="17" font-weight="bold" text-anchor="middle" font-family="'Segoe UI',Calibri,system-ui,sans-serif">output</text>
<rect x="518" y="95" width="150" height="150" rx="9" fill="#13233B" stroke="#22D3C5" stroke-width="1.6"/>
<text x="593.0" y="175.0" fill="#8FA6C4" font-size="15" text-anchor="middle" font-family="ui-monospace,'Courier New',monospace">n×64</text>
<text x="593.0" y="275" fill="#8FA6C4" font-size="15" font-weight="bold" text-anchor="middle" font-family="ui-monospace,'Courier New',monospace">(n, d_k) = (3, 64)</text>
<rect x="708" y="90" width="230" height="130" rx="9" fill="#13233B" stroke="#8FA6C4" stroke-width="1"/>
<text x="724" y="120" fill="#EAF2FB" font-size="14" font-weight="bold" text-anchor="start" font-family="ui-monospace,'Courier New',monospace">output[0] =</text>
<text x="724" y="145" fill="#8FA6C4" font-size="13" font-weight="normal" text-anchor="start" font-family="ui-monospace,'Courier New',monospace">0.71·V[0] + 0.18·V[1]</text>
<text x="724" y="165" fill="#8FA6C4" font-size="13" font-weight="normal" text-anchor="start" font-family="ui-monospace,'Courier New',monospace">         + 0.11·V[2]</text>
</svg>
