<svg xmlns="http://www.w3.org/2000/svg" viewBox="0 0 980 320" font-family="'Segoe UI',Calibri,system-ui,sans-serif" width="100%">
<rect width="980" height="320" fill="#0B1524" rx="14"/>
<rect x="50" y="70" width="470" height="90" rx="10" fill="#13233B" stroke="#A78BFA" stroke-width="1.3"/>
<text x="75" y="125" fill="#EAF2FB" font-size="20" font-weight="bold" text-anchor="start" font-family="ui-monospace,'Courier New',monospace">weights = softmax( scores / √d_k )</text>
<text x="55" y="195" fill="#8FA6C4" font-size="14" font-weight="normal" text-anchor="start" font-family="'Segoe UI',Calibri,system-ui,sans-serif">√d_k = √64 = 8      softmax applied row-wise (dim = -1)</text>
<text x="751.0" y="52" fill="#A78BFA" font-size="17" font-weight="bold" text-anchor="middle" font-family="'Segoe UI',Calibri,system-ui,sans-serif">weights</text>
<rect x="628" y="58" width="246" height="186" rx="9" fill="#13233B" stroke="#A78BFA" stroke-width="1.4"/>
<rect x="640" y="70" width="70" height="50" rx="5" fill="#0B1524" stroke="#A78BFA" stroke-width="1.2"/>
<text x="675.0" y="100.25" fill="#EAF2FB" font-size="15" text-anchor="middle" font-family="ui-monospace,'Courier New',monospace">0.71</text>
<rect x="716" y="70" width="70" height="50" rx="5" fill="#0B1524" stroke="#A78BFA" stroke-width="1.2"/>
<text x="751.0" y="100.25" fill="#EAF2FB" font-size="15" text-anchor="middle" font-family="ui-monospace,'Courier New',monospace">0.18</text>
<rect x="792" y="70" width="70" height="50" rx="5" fill="#0B1524" stroke="#A78BFA" stroke-width="1.2"/>
<text x="827.0" y="100.25" fill="#EAF2FB" font-size="15" text-anchor="middle" font-family="ui-monospace,'Courier New',monospace">0.11</text>
<rect x="640" y="126" width="70" height="50" rx="5" fill="#0B1524" stroke="#A78BFA" stroke-width="1.2"/>
<text x="675.0" y="156.25" fill="#EAF2FB" font-size="15" text-anchor="middle" font-family="ui-monospace,'Courier New',monospace">0.20</text>
<rect x="716" y="126" width="70" height="50" rx="5" fill="#0B1524" stroke="#A78BFA" stroke-width="1.2"/>
<text x="751.0" y="156.25" fill="#EAF2FB" font-size="15" text-anchor="middle" font-family="ui-monospace,'Courier New',monospace">0.65</text>
<rect x="792" y="126" width="70" height="50" rx="5" fill="#0B1524" stroke="#A78BFA" stroke-width="1.2"/>
<text x="827.0" y="156.25" fill="#EAF2FB" font-size="15" text-anchor="middle" font-family="ui-monospace,'Courier New',monospace">0.15</text>
<rect x="640" y="182" width="70" height="50" rx="5" fill="#0B1524" stroke="#A78BFA" stroke-width="1.2"/>
<text x="675.0" y="212.25" fill="#EAF2FB" font-size="15" text-anchor="middle" font-family="ui-monospace,'Courier New',monospace">0.09</text>
<rect x="716" y="182" width="70" height="50" rx="5" fill="#0B1524" stroke="#A78BFA" stroke-width="1.2"/>
<text x="751.0" y="212.25" fill="#EAF2FB" font-size="15" text-anchor="middle" font-family="ui-monospace,'Courier New',monospace">0.22</text>
<rect x="792" y="182" width="70" height="50" rx="5" fill="#0B1524" stroke="#A78BFA" stroke-width="1.2"/>
<text x="827.0" y="212.25" fill="#EAF2FB" font-size="15" text-anchor="middle" font-family="ui-monospace,'Courier New',monospace">0.69</text>
<text x="751.0" y="266" fill="#8FA6C4" font-size="14" font-weight="bold" text-anchor="middle" font-family="ui-monospace,'Courier New',monospace">(3, 3) — each row sums to 1.0</text>
</svg>
